{
  "accessors": [
    {
      "bufferView": 2,
      "componentType": 5126,
      "count": 428,
      "max": [
        0.36626487970352173,
        2.6743927001953125,
        0.5418139696121216
      ],
      "min": [
        -2.1024719742968045e-09,
        0.0006909179501235485,
        0.09085648506879807
      ],
      "type": "VEC3"
    },
    {
      "bufferView": 2,
      "byteOffset": 5136,
      "componentType": 5126,
      "count": 428,
      "max": [
        1.0,
        1.0,
        0.9811920523643494
      ],
      "min": [
        -1.0,
        -1.0,
        -0.9998970031738281
      ],
      "type": "VEC3"
    },
    {
      "bufferView": 0,
      "componentType": 5125,
      "count": 36,
      "type": "SCALAR"
    },
    {
      "bufferView": 0,
      "byteOffset": 144,
      "componentType": 5125,
      "count": 1134,
      "type": "SCALAR"
    },
    {
      "bufferView": 2,
      "byteOffset": 10272,
      "componentType": 5126,
      "count": 1296,
      "max": [
        0.11867524683475494,
        0.9119482040405273,
        0.5417841672897339
      ],
      "min": [
        -0.11867524683475494,
        0.3282015025615692,
        0.39501920342445374
      ],
      "type": "VEC3"
    },
    {
      "bufferView": 2,
      "byteOffset": 25824,
      "componentType": 5126,
      "count": 1296,
      "max": [
        0.8867045640945435,
        0.09893796592950821,
        0.996330976486206
      ],
      "min": [
        -0.8867045640945435,
        -0.5621446371078491,
        0.43781912326812744
      ],
      "type": "VEC3"
    },
    {
      "bufferView": 0,
      "byteOffset": 4680,
      "componentType": 5125,
      "count": 1944,
      "type": "SCALAR"
    },
    {
      "bufferView": 2,
      "byteOffset": 41376,
      "componentType": 5126,
      "count": 7616,
      "max": [
        1.0384856462478638,
        2.9856820106506348,
        0.7800100445747375
      ],
      "min": [
        -1.0384856462478638,
        0.0006909179501235485,
        0.09086523205041885
      ],
      "type": "VEC3"
    },
    {
      "bufferView": 2,
      "byteOffset": 132768,
      "componentType": 5126,
      "count": 7616,
      "max": [
        1.0,
        0.9702507257461548,
        0.9999927282333374
      ],
      "min": [
        -1.0,
        -1.0,
        -0.9999687671661377
      ],
      "type": "VEC3"
    },
    {
      "bufferView": 1,
      "componentType": 5126,
      "count": 7616,
      "max": [
        0.9756697416305542,
        0.9896066188812256
      ],
      "min": [
        0.16620630025863647,
        0.015305527485907078
      ],
      "type": "VEC2"
    },
    {
      "bufferView": 0,
      "byteOffset": 12456,
      "componentType": 5125,
      "count": 40416,
      "type": "SCALAR"
    },
    {
      "bufferView": 2,
      "byteOffset": 224160,
      "componentType": 5126,
      "count": 979,
      "max": [
        0.1499500274658203,
        2.6753926277160645,
        0.4300000071525574
      ],
      "min": [
        -0.1499500274658203,
        2.4953925609588623,
        0.15000000596046448
      ],
      "type": "VEC3"
    },
    {
      "bufferView": 2,
      "byteOffset": 235908,
      "componentType": 5126,
      "count": 979,
      "max": [
        0.9999130368232727,
        0.9701425433158875,
        0.9984806776046753
      ],
      "min": [
        -0.9999130368232727,
        -1.0,
        -1.0
      ],
      "type": "VEC3"
    },
    {
      "bufferView": 0,
      "byteOffset": 174120,
      "componentType": 5125,
      "count": 4503,
      "type": "SCALAR"
    }
  ],
  "asset": {
    "extras": {
      "author": "PetriParkkinen (https://sketchfab.com/PetriParkkinen)",
      "license": "CC-BY-4.0 (http://creativecommons.org/licenses/by/4.0/)",
      "source": "https://sketchfab.com/3d-models/f-35-ce27aef8f565405ab97345111f56cbcf",
      "title": "F-35"
    },
    "generator": "Sketchfab-12.63.0",
    "version": "2.0"
  },
  "bufferViews": [
    {
      "buffer": 0,
      "byteLength": 192132,
      "name": "floatBufferViews",
      "target": 34963
    },
    {
      "buffer": 0,
      "byteLength": 60928,
      "byteOffset": 192132,
      "byteStride": 8,
      "name": "floatBufferViews",
      "target": 34962
    },
    {
      "buffer": 0,
      "byteLength": 247656,
      "byteOffset": 253060,
      "byteStride": 12,
      "name": "floatBufferViews",
      "target": 34962
    }
  ],
  "buffers": [
    {
      "byteLength": 500716,
      "uri": "scene.bin"
    }
  ],
  "images": [
    {
      "uri": "textures/material_1_baseColor.jpeg"
    }
  ],
  "materials": [
    {
      "doubleSided": true,
      "name": "material_0",
      "pbrMetallicRoughness": {
        "baseColorFactor": [
          0.02316566030226372,
          0.03508852744220618,
          0.04167169351225248,
          1.0
        ],
        "metallicFactor": 0.39195884146341464,
        "roughnessFactor": 0.3858612804878049
      }
    },
    {
      "doubleSided": true,
      "name": "material_1",
      "pbrMetallicRoughness": {
        "baseColorTexture": {
          "index": 0
        },
        "metallicFactor": 0.0,
        "roughnessFactor": 0.6751143292682926
      }
    },
    {
      "doubleSided": true,
      "name": "material_2",
      "pbrMetallicRoughness": {
        "baseColorFactor": [
          0.013314292935956682,
          0.013314292935956682,
          0.013314292935956682,
          1.0
        ],
        "metallicFactor": 0.39195884146341464,
        "roughnessFactor": 0.6
      }
    },
    {
      "doubleSided": true,
      "name": "material_3",
      "pbrMetallicRoughness": {
        "metallicFactor": 0.0,
        "roughnessFactor": 0.6
      }
    }
  ],
  "meshes": [
    {
      "name": "Object_0",
      "primitives": [
        {
          "attributes": {
            "NORMAL": 1,
            "POSITION": 0
          },
          "indices": 2,
          "material": 3,
          "mode": 1
        },
        {
          "attributes": {
            "NORMAL": 1,
            "POSITION": 0
          },
          "indices": 3,
          "material": 3,
          "mode": 4
        }
      ]
    },
    {
      "name": "Object_1",
      "primitives": [
        {
          "attributes": {
            "NORMAL": 5,
            "POSITION": 4
          },
          "indices": 6,
          "material": 0,
          "mode": 4
        }
      ]
    },
    {
      "name": "Object_2",
      "primitives": [
        {
          "attributes": {
            "NORMAL": 8,
            "POSITION": 7,
            "TEXCOORD_0": 9
          },
          "indices": 10,
          "material": 1,
          "mode": 4
        }
      ]
    },
    {
      "name": "Object_3",
      "primitives": [
        {
          "attributes": {
            "NORMAL": 12,
            "POSITION": 11
          },
          "indices": 13,
          "material": 2,
          "mode": 4
        }
      ]
    }
  ],
  "nodes": [
    {
      "children": [
        1
      ],
      "matrix": [
        0.14545324444770813,
        0.0,
        0.0,
        0.0,
        0.0,
        3.2297108198455355e-17,
        -0.14545324444770813,
        0.0,
        0.0,
        0.14545324444770813,
        3.2297108198455355e-17,
        0.0,
        0.0,
        0.0,
        0.0,
        1.0
      ],
      "name": "Sketchfab_model"
    },
    {
      "children": [
        2,
        3,
        4,
        5
      ],
      "name": "F-35.lwo"
    },
    {
      "mesh": 0,
      "name": "Object_2"
    },
    {
      "mesh": 1,
      "name": "Object_3"
    },
    {
      "mesh": 2,
      "name": "Object_4"
    },
    {
      "mesh": 3,
      "name": "Object_5"
    }
  ],
  "samplers": [
    {
      "magFilter": 9729,
      "minFilter": 9987,
      "wrapS": 10497,
      "wrapT": 10497
    }
  ],
  "scene": 0,
  "scenes": [
    {
      "name": "Sketchfab_Scene",
      "nodes": [
        0
      ]
    }
  ],
  "textures": [
    {
      "sampler": 0,
      "source": 0
    }
  ]
}
